<?xml version="1.0" encoding="UTF-8"?>
<svg id="Layer_1" data-name="Layer 1" xmlns="http://www.w3.org/2000/svg" viewBox="0 0 165 165">
  <defs>
    <style>
      .cls-1 {
        fill: #fff;
      }

      .cls-1, .cls-2 {
        stroke-width: 0px;
      }

      .cls-2 {
        fill: #3d52a3;
      }
    </style>
  </defs>
  <circle class="cls-2" cx="82.5" cy="82.5" r="77"/>
  <circle class="cls-2" cx="82.5" cy="82.5" r="77"/>
  <path class="cls-1" d="M89.65,75.76l-1.29-1.52c.2-.17,20.59-17.24,47.65-17.24v2c-26.3,0-46.16,16.59-46.35,16.76Z"/>
  <path class="cls-1" d="M83.6,136.96l-1-1.96c-.14-.27-13.59-27.33,1.55-50.55l.29.19c-.47-.85-.98-1.68-1.52-2.5-14.87-22.38-51.43-23.14-51.8-23.14l.03-2c1.54.02,37.97.77,53.43,24.03,8.92,13.42,8.87,31.56-.16,53.9l-.82,2.04ZM85.33,86.34c-11.38,18.33-4.58,39.01-1.89,45.61,7.03-18.42,7.66-33.73,1.89-45.61Z"/>
  <path class="cls-1" d="M83,61c-7.72,0-14-6.28-14-14s6.28-14,14-14,14,6.28,14,14-6.28,14-14,14ZM83,35c-6.62,0-12,5.38-12,12s5.38,12,12,12,12-5.38,12-12-5.38-12-12-12Z"/>
  <g>
    <path class="cls-1" d="M89.65,75.76l-1.29-1.52c.2-.17,20.59-17.24,47.65-17.24v2c-26.3,0-46.16,16.59-46.35,16.76Z"/>
    <path class="cls-1" d="M83.6,136.96l-1-1.96c-.14-.27-13.59-27.33,1.55-50.55l.29.19c-.47-.85-.98-1.68-1.52-2.5-14.87-22.38-51.43-23.14-51.8-23.14l.03-2c1.54.02,37.97.77,53.43,24.03,8.92,13.42,8.87,31.56-.16,53.9l-.82,2.04ZM85.33,86.34c-11.38,18.33-4.58,39.01-1.89,45.61,7.03-18.42,7.66-33.73,1.89-45.61Z"/>
    <path class="cls-1" d="M83,61c-7.72,0-14-6.28-14-14s6.28-14,14-14,14,6.28,14,14-6.28,14-14,14ZM83,35c-6.62,0-12,5.38-12,12s5.38,12,12,12,12-5.38,12-12-5.38-12-12-12Z"/>
  </g>
</svg>